<svg width="25" height="25" viewBox="0 0 25 25" fill="none" xmlns="http://www.w3.org/2000/svg">
    <path d="M0 12.5C0 5.59644 5.59644 0 12.5 0V0C19.4036 0 25 5.59644 25 12.5V12.5C25 19.4036 19.4036 25 12.5 25V25C5.59644 25 0 19.4036 0 12.5V12.5Z" fill="#535353" />
    <g clip-path="url(#clip0_913_6633)">
        <rect x="1.6665" y="1.6665" width="21.6667" height="21.6667" rx="10.8333" fill="#262626" />
        <g filter="url(#filter0_d_913_6633)">
            <path d="M16.348 8.88982C15.3902 7.93195 14.0756 7.3374 12.6156 7.3374C9.69576 7.3374 7.3374 9.70236 7.3374 12.6222C7.3374 15.5421 9.69576 17.9071 12.6156 17.9071C15.0797 17.9071 17.1342 16.2225 17.7221 13.9434H16.348C15.8063 15.4826 14.3398 16.5859 12.6156 16.5859C10.429 16.5859 8.652 14.8088 8.652 12.6222C8.652 10.4356 10.429 8.65861 12.6156 8.65861C13.7122 8.65861 14.6899 9.11443 15.4034 9.83448L13.2762 11.9616H17.9005V7.3374L16.348 8.88982Z" fill="#D7D7D7" />
        </g>
    </g>
    <defs>
        <filter id="filter0_d_913_6633" x="0.983686" y="5.74897" width="23.2704" height="23.2773" filterUnits="userSpaceOnUse" color-interpolation-filters="sRGB">
            <feFlood flood-opacity="0" result="BackgroundImageFix" />
            <feColorMatrix in="SourceAlpha" type="matrix" values="0 0 0 0 0 0 0 0 0 0 0 0 0 0 0 0 0 0 127 0" result="hardAlpha" />
            <feOffset dy="4.76529" />
            <feGaussianBlur stdDeviation="3.17686" />
            <feComposite in2="hardAlpha" operator="out" />
            <feColorMatrix type="matrix" values="0 0 0 0 1 0 0 0 0 1 0 0 0 0 1 0 0 0 0.75 0" />
            <feBlend mode="normal" in2="BackgroundImageFix" result="effect1_dropShadow_913_6633" />
            <feBlend mode="normal" in="SourceGraphic" in2="effect1_dropShadow_913_6633" result="shape" />
        </filter>
        <clipPath id="clip0_913_6633">
            <rect x="1.6665" y="1.6665" width="21.6667" height="21.6667" rx="10.8333" fill="white" />
        </clipPath>
    </defs>
</svg>
    