<svg viewBox="0 0 91 89" preserveAspectRatio="none" fill="none" xmlns="http://www.w3.org/2000/svg">
    <g clip-path="url(#clip0_1011_9641)">
        <path d="M2.42432 67.9896C5.35162 68.2707 11.2214 62.8933 18.1393 48.3139C27.0753 29.4814 29.4574 27.8938 35.395 37.9139C41.5578 48.3139 50.0315 59.2761 58.9675 22.4544C65.3978 -4.04205 71.5995 0.112916 76.0692 7.83816C78.9965 12.8976 83.0022 27.2328 88.5487 29.7625" stroke="url(#paint0_linear_1011_9641)" stroke-width="1" stroke-linecap="round" />
        <path opacity="0.1" d="M18.1393 49.3202C11.2214 63.9017 5.35162 69.2798 2.42432 68.9986V89H45.4865H88.5487V30.7663C83.0023 28.2362 78.9965 13.8991 76.0692 8.83896C71.5995 1.11266 65.3978 -3.04288 58.9675 23.4572C50.0315 60.2839 41.5578 49.3202 35.395 38.9188C29.4574 28.8974 27.0753 30.4852 18.1393 49.3202Z" fill="url(#paint1_linear_1011_9641)" />
    </g>
    <defs>
        <linearGradient id="paint0_linear_1011_9641" x1="49.3382" y1="-12.9845" x2="-33.6123" y2="35.897" gradientUnits="userSpaceOnUse">
            <stop stop-color="#163a41" />
            <stop offset="1" stop-color="#32656D" />
        </linearGradient>
        <linearGradient id="paint1_linear_1011_9641" x1="49.3382" y1="-11.9866" x2="-33.6182" y2="36.8917" gradientUnits="userSpaceOnUse">
            <stop stop-color="#163a41" />
            <stop offset="1" stop-color="#32656D" />
        </linearGradient>
        <clipPath id="clip0_1011_9641">
            <rect width="91" height="89" fill="white" />
        </clipPath>
    </defs>
</svg>